<?xml version="1.0" encoding="UTF-8" standalone="no"?>
<svg
   width="866"
   height="276.742"
   viewBox="0 0 866 276.742"
   version="1.1"
   id="svg4"
   xmlns="http://www.w3.org/2000/svg"
   xmlns:svg="http://www.w3.org/2000/svg">
  <defs
     id="defs8" />
  <path
     id="path2"
     d="m 0,0 v 276.74219 c 14.594,-2.162 28.646781,-4.32432 44.050781,-5.94531 V 119.72461 l 49.458985,144.85547 c 16.215004,-2.16 31.888964,-2.97078 47.292964,-5.67578 V 0 H 97.292969 V 157.02148 L 41.080078,0 Z m 182.69141,0 v 255.39062 l 108.09375,-8.61523 -0.0312,-42.4043 c -25.673,0.811 -39.41532,2.91611 -64.82032,4.53711 0.96218,-37.15523 -1.6405,-117.878724 0,-165.667966 l 64.71485,-0.06836 -0.0293,-43.1171875 z m 107.92773,0.0546875 0.0371,43.1171875 h -0.008 l 0.13672,203.603515 c 13.8719,-0.51964 27.44285,-2.61358 41.77148,-3.3418 L 333.03125,0.0859375 Z M 538.88477,0 v 242.68945 c 39.457,0.813 62.58837,2.21444 101.23437,4.64844 13.783,0.812 28.37669,1.62319 42.42969,3.24219 V 0 h -42.42969 v 204.63672 c -24.054,-1.349 -33.40014,-2.21686 -57.99414,-2.75586 V 0 Z m 172.6914,0 50.26953,129.99219 -55.67187,126.75 c 15.672,2.162 30.80442,2.97273 46.48242,5.67773 l 31.61719,-73.50976 31.07812,79.99414 c 16.216,2.703 32.43144,5.67589 48.64844,7.83789 L 809.13672,131.61523 864,0 H 816.70508 L 786.43555,72.699219 758.05859,0 Z M 361.33203,0.41015625 400.9625,246.10701 c 39.457,0.813 22.95791,-0.79296 61.60391,1.64104 13.783,0.812 -2.98599,-1.20101 11.06701,0.41799 L 504.99609,0.41015625 H 462.56641 L 439.39962,204.37094 C 429.66824,159.28829 414.06178,68.629578 404.57227,0.41015625 Z"
     style="fill:#d40000" />
</svg>
